# xmcd
#
# Track frame offsets: 
#        150
#        11520
#        32325
#
# Disc length: 622 seconds
#
# Revision: 0
# Processed by: cddbd v1.5.2PL0 Copyright (c) Steve Scherf et al.
# Submitted via: ExactAudioCopy v0.95b4
#
DISCID=13026c03
DTITLE=Rose-Mary Lou - My Lucky Dance
DYEAR=2001
DGENRE=Country
TTITLE0=My Lucky Dance
TTITLE1=House Of The Rising Sun
TTITLE2=Sweet Sweet Tennessee Breeze
EXTD=
EXTT0=
EXTT1=
EXTT2=
PLAYORDER=
